<?xml version="1.0" encoding="UTF-8" standalone="no"?>
<!-- Created with Inkscape (http://www.inkscape.org/) -->

<svg
   xmlns:dc="http://purl.org/dc/elements/1.1/"
   xmlns:cc="http://creativecommons.org/ns#"
   xmlns:rdf="http://www.w3.org/1999/02/22-rdf-syntax-ns#"
   xmlns:svg="http://www.w3.org/2000/svg"
   xmlns="http://www.w3.org/2000/svg"
   xmlns:sodipodi="http://sodipodi.sourceforge.net/DTD/sodipodi-0.dtd"
   xmlns:inkscape="http://www.inkscape.org/namespaces/inkscape"
   width="30mm"
   height="32mm"
   viewBox="0 0 106.29916 113.38577"
   id="svg4021"
   version="1.1"
   inkscape:version="0.91 r13725"
   sodipodi:docname="omesa_orig.svg">
  <defs
     id="defs4023" />
  <sodipodi:namedview
     id="base"
     pagecolor="#ffffff"
     bordercolor="#666666"
     borderopacity="1.0"
     inkscape:pageopacity="0.0"
     inkscape:pageshadow="2"
     inkscape:zoom="2.8284271"
     inkscape:cx="-91.846302"
     inkscape:cy="84.272414"
     inkscape:document-units="px"
     inkscape:current-layer="layer1"
     showgrid="false"
     inkscape:window-width="1920"
     inkscape:window-height="1022"
     inkscape:window-x="0"
     inkscape:window-y="27"
     inkscape:window-maximized="1" />
  <metadata
     id="metadata4026">
    <rdf:RDF>
      <cc:Work
         rdf:about="">
        <dc:format>image/svg+xml</dc:format>
        <dc:type
           rdf:resource="http://purl.org/dc/dcmitype/StillImage" />
        <dc:title></dc:title>
      </cc:Work>
    </rdf:RDF>
  </metadata>
  <g
     inkscape:label="Layer 1"
     inkscape:groupmode="layer"
     id="layer1"
     transform="translate(0,-938.97651)">
    <text
       xml:space="preserve"
       style="font-style:normal;font-weight:normal;font-size:40px;line-height:125%;font-family:sans-serif;letter-spacing:0px;word-spacing:0px;fill:#000000;fill-opacity:1;stroke:none;stroke-width:1px;stroke-linecap:butt;stroke-linejoin:miter;stroke-opacity:1"
       x="-3.0178962"
       y="1049.634"
       id="text4029"
       sodipodi:linespacing="125%"><tspan
         sodipodi:role="line"
         id="tspan4031"
         x="-3.0178962"
         y="1049.634"
         style="font-style:normal;font-variant:normal;font-weight:normal;font-stretch:normal;font-size:187.5px;font-family:Courier;-inkscape-font-specification:Courier">Ω</tspan></text>
    <text
       xml:space="preserve"
       style="font-style:normal;font-weight:normal;font-size:40px;line-height:125%;font-family:sans-serif;letter-spacing:0px;word-spacing:0px;fill:#000000;fill-opacity:1;stroke:none;stroke-width:1px;stroke-linecap:butt;stroke-linejoin:miter;stroke-opacity:1"
       x="-10.543714"
       y="1033.5238"
       id="text4045"
       sodipodi:linespacing="125%"><tspan
         sodipodi:role="line"
         id="tspan4047"
         x="-10.543714"
         y="1033.5238"
         style="font-style:normal;font-variant:normal;font-weight:normal;font-stretch:normal;font-size:212.5px;font-family:'Courier New';-inkscape-font-specification:'Courier New'">o</tspan></text>
    <path
       style="fill:none;fill-rule:evenodd;stroke:#000000;stroke-width:0.77127784px;stroke-linecap:butt;stroke-linejoin:miter;stroke-opacity:1"
       d="m 23.555098,1017.5891 c 36.05204,1.1886 15.65607,-41.46855 68.94414,-41.3365"
       id="path4053"
       inkscape:connector-curvature="0" />
    <path
       style="fill:#000000"
       d="m 44.598006,1031.1415 c -10.63953,-0.481 -20.106815,-3.6991 -28.312348,-9.6242 l -2.109542,-1.5228 2.664697,-0.2607 c 8.261952,-0.8082 14.355866,-3.5749 19.115481,-8.678 2.329554,-2.4977 3.890004,-4.6582 7.748872,-10.7279 5.299168,-8.33527 7.038348,-10.60162 10.876888,-14.17352 2.591739,-2.41181 5.376527,-4.41346 8.274908,-5.94798 7.202279,-3.81318 16.822333,-6.00448 28.069898,-6.39386 l 3.693795,-0.12787 0.350093,1.08327 c 2.113839,6.54137 2.448103,14.4321 0.90444,21.35134 -2.503026,11.21932 -10.198015,21.23812 -21.496847,27.98802 -5.551411,3.3166 -11.46435,5.4091 -18.24988,6.4589 -2.089006,0.3234 -7.756385,0.7315 -9.309897,0.6704 -0.488499,-0.016 -1.487791,-0.063 -2.220558,-0.097 z"
       id="path4055"
       inkscape:connector-curvature="0" />
    <path
       style="fill:#000000"
       id="path4094"
       d="m 26.341588,1017.9016 c 0.0133,0 0.027,0 0.0407,0 0.009,2e-4 0.018,-10e-5 0.0271,-2e-4 0.008,-10e-5 0.0156,-2e-4 0.0234,-2e-4 0.004,0 0.01,0 0.0153,0 0.002,0 0.0102,-2e-4 0.0122,-3e-4 0.002,-10e-5 0.004,-10e-5 0.006,-2e-4 0,0 -0.19263,0.1414 -0.19263,0.1414 l 0,0 c -0.002,10e-5 -0.004,2e-4 -0.006,3e-4 -0.004,4e-4 -0.008,7e-4 -0.0118,10e-4 -0.006,0 -0.0113,0 -0.0175,0 -0.008,10e-5 -0.0156,10e-5 -0.0234,0 -0.009,-2e-4 -0.0183,-8e-4 -0.0274,0 -0.0143,0 -0.0284,0 -0.0427,-0.01 0,0 0.1965,-0.1369 0.1965,-0.1369 z"
       inkscape:connector-curvature="0" />
  </g>
</svg>
